<?xml version="1.0" standalone="no"?>
<!DOCTYPE svg PUBLIC "-//W3C//DTD SVG 20010904//EN" "http://www.w3.org/TR/2001/REC-SVG-20010904/DTD/svg10.dtd">
<svg version="1.0" xmlns="http://www.w3.org/2000/svg" width="205.000000pt" height="130.000000pt"
    viewBox="0 0 205.000000 130.000000" preserveAspectRatio="xMidYMid meet">

    <g transform="translate(0.000000,130.000000) scale(0.100000,-0.100000)" fill="#432382" stroke="none">
        <path d="M1370 1138 l-102 -113 118 -3 118 -3 51 57 51 57 50 -57 49 -57 120
3 119 3 -103 113 -104 112 -133 0 -133 0 -101 -112z" />
        <path d="M505 938 c-3 -7 -4 -200 -3 -427 l3 -415 75 -3 c41 -2 99 -1 128 2
l52 6 0 128 0 128 128 5 c148 6 218 27 276 84 46 45 61 75 76 150 12 62 6 120
-19 187 -17 45 -88 113 -144 138 -49 22 -66 23 -309 27 -210 3 -259 1 -263
-10z m453 -209 c42 -14 59 -57 43 -109 -14 -48 -44 -60 -157 -60 l-84 0 0 90
0 90 84 0 c45 0 97 -5 114 -11z" />
        <path d="M117 933 c-4 -3 -7 -192 -7 -419 0 -384 1 -412 18 -416 9 -2 64 -4
122 -4 l105 1 3 423 2 422 -118 0 c-65 0 -122 -3 -125 -7z" />
        <path d="M1300 932 c0 -4 11 -23 24 -43 62 -90 81 -263 43 -379 -55 -165 -199
-270 -394 -287 l-73 -6 0 -58 c0 -33 1 -59 3 -59 186 -6 984 -11 1010 -6 l37
7 0 99 0 100 -220 0 -219 0 -7 35 c-3 19 -3 46 0 60 l6 25 198 2 197 3 3 93 3
92 -113 2 c-62 0 -153 2 -203 2 l-90 1 0 55 0 55 222 3 221 2 5 38 c8 60 8
132 2 153 -6 18 -19 19 -331 19 -178 0 -324 -3 -324 -8z" />
    </g>
</svg>